# xmcd CD database file
#
# Track frame offsets:
#	150
#	23282
#	27920
#	45940
#	69225
#	89705
#	118032
#	135270
#	155560
#	173865
#	181215
#	201825
#
# Disc length: 2926 seconds
#
# Revision: 0
# Processed by: cddbd v1.5.1PL0 Copyright (c) Steve Scherf et al.
# Submitted via: CDex 1.51
#
DISCID=900b6c0c
DTITLE=CHAGE&ASKA - 熱風(1981)[25th Anniversary BOX-1]
DYEAR=2004
DGENRE=JPop
TTITLE0=熱風
TTITLE1=水面の静(Instrumental)
TTITLE2=万里の河
TTITLE3=この恋おいらのからまわり
TTITLE4=花暦
TTITLE5=悲炎
TTITLE6=翼
TTITLE7=あばんぎゃるど
TTITLE8=嘘
TTITLE9=草原の静（Instrumental)
TTITLE10=荒野
TTITLE11=お・や・す・み
EXTD=YEAR: 2004
EXTT0=
EXTT1=
EXTT2=
EXTT3=
EXTT4=
EXTT5=
EXTT6=
EXTT7=
EXTT8=
EXTT9=
EXTT10=
EXTT11=
PLAYORDER=
